<svg width="100" height="98" viewBox="0 0 100 98" fill="none" xmlns="http://www.w3.org/2000/svg">
<path d="M83.3984 0H16.6016C7.43277 0 0 7.43277 0 16.6016V80.8984C0 90.0672 7.43277 97.5 16.6016 97.5H83.3984C92.5672 97.5 100 90.0672 100 80.8984V16.6016C100 7.43277 92.5672 0 83.3984 0Z" fill="#00005B"/>
<path d="M40.1729 58.3333H24.6764L21.5233 68.1462C21.4829 68.3144 21.3883 68.4647 21.2541 68.5739C21.12 68.683 20.9536 68.7451 20.7807 68.7505L12.8698 68.7501C12.4221 68.7501 12.2655 68.504 12.4003 68.0118L25.8171 29.5318L25.951 29.1275L25.9956 28.9892L26.0854 28.7001C26.13 28.5509 26.1745 28.3927 26.2194 28.2212C26.3952 27.3263 26.485 26.4165 26.4878 25.5044C26.4787 25.4407 26.4846 25.3756 26.505 25.3145C26.5254 25.2534 26.5597 25.1979 26.6053 25.1524C26.6508 25.1068 26.7063 25.0725 26.7674 25.0521C26.8285 25.0317 26.8935 25.0258 26.9573 25.0349H37.6237C37.9362 25.0349 38.1147 25.1466 38.1604 25.3704L53.3882 68.0794C53.5221 68.5267 53.3882 68.7505 52.9858 68.7501H44.2647C44.115 68.7667 43.9643 68.7282 43.8408 68.6418C43.7174 68.5554 43.6296 68.427 43.594 68.2806L40.1729 58.3333ZM27.0917 50.0595H37.6909L37.5397 49.5607L37.2971 48.7708L36.9421 47.6396L36.2604 45.504L35.6112 43.4517L34.4034 39.6279C34.0697 38.5723 33.7493 37.5126 33.4425 36.449L33.0995 35.2396L32.7292 33.9142L32.3909 32.6849H32.3237C31.9882 34.2951 31.5794 35.8892 31.0987 37.4622L30.6456 38.9165L29.5557 42.4322L29.0034 44.2232C28.9034 44.5466 28.8042 44.8665 28.7046 45.1825L28.4077 46.1193L28.1124 47.0341L27.8186 47.9263L27.5264 48.7962C27.3811 49.2259 27.2358 49.6466 27.0917 50.0595ZM78.0753 54.5142H64.86C65.0219 55.8216 65.4561 57.0806 66.1346 58.2099C66.8848 59.3282 67.9457 60.2027 69.1866 60.7255C70.8685 61.4533 72.6876 61.8099 74.5198 61.7708C75.9735 61.743 77.4217 61.584 78.8468 61.2958C80.1213 61.1238 81.3703 60.7983 82.5667 60.3263C82.7901 60.1482 82.9026 60.2591 82.9026 60.6615V67.0345C82.9135 67.2083 82.8788 67.3818 82.8014 67.5376C82.7249 67.6595 82.6217 67.7626 82.4999 67.8396C81.1728 68.4275 79.7761 68.8436 78.3436 69.0779C76.3977 69.4432 74.4198 69.6117 72.4401 69.5806C69.3635 69.5806 66.7702 69.1189 64.66 68.1958L64.4569 68.1048C62.4284 67.2111 60.6368 65.8558 59.2249 64.147C57.9059 62.5368 56.9248 60.6774 56.3401 58.6798C55.7614 56.7081 55.468 54.6636 55.4686 52.6087C55.4625 50.3649 55.8135 48.1344 56.5085 46.0009C57.1777 43.9199 58.2362 41.9849 59.6276 40.299C61 38.6325 62.7162 37.2823 64.6589 36.3408C66.6264 35.3798 68.9522 35.0349 71.6354 35.0349C73.8608 34.9786 76.0713 35.4138 78.1093 36.3095C79.8228 37.0403 81.3313 38.1796 82.503 39.6279C83.602 41.0461 84.4422 42.647 84.985 44.3572C85.5136 46.0052 85.7851 47.7249 85.7901 49.4556C85.7901 50.44 85.7565 51.3345 85.6897 52.1392L85.63 52.8283L85.5675 53.4822L85.5303 53.8134C85.5275 53.8367 85.5247 53.86 85.5218 53.8833C85.5043 54.0312 85.4333 54.1675 85.322 54.2664C85.2108 54.3654 85.0671 54.42 84.9182 54.4201L84.7342 54.424L84.505 54.4357L84.3264 54.4486L83.9092 54.4841L83.5428 54.5204C83.4432 54.531 83.3397 54.5408 83.2323 54.5497L82.8999 54.5759L82.5448 54.5993L82.1678 54.6189L81.7686 54.6357L81.5604 54.6427L81.128 54.6544C80.7003 54.665 80.262 54.6384 79.8124 54.6056L79.1303 54.5556C78.7794 54.5299 78.4272 54.5161 78.0753 54.5142ZM64.8604 48.4029H73.9956L74.7737 48.3978L75.3026 48.3904L75.6452 48.3826L76.0296 48.3693C76.3736 48.3349 76.7057 48.2248 77.0022 48.047V47.6447C76.9888 47.12 76.8985 46.6001 76.7343 46.1017C76.3724 44.9572 75.6447 43.9631 74.6631 43.2722C73.6815 42.5814 72.5002 42.2319 71.3007 42.2775C70.1716 42.2092 69.0471 42.471 68.0643 43.0309C67.0815 43.5908 66.2829 44.4246 65.7659 45.4306C65.3063 46.3664 65.0006 47.3698 64.8604 48.4029Z" fill="#9999FF"/>
</svg>
