<svg width="100" height="98" viewBox="0 0 100 98" fill="none" xmlns="http://www.w3.org/2000/svg">
<path d="M83.3984 0H16.6016C7.43277 0 0 7.43277 0 16.6016V80.8984C0 90.0672 7.43277 97.5 16.6016 97.5H83.3984C92.5672 97.5 100 90.0672 100 80.8984V16.6016C100 7.43277 92.5672 0 83.3984 0Z" fill="#330000"/>
<path d="M48.4586 58.5115H32.9625L29.8094 68.3057C29.7665 68.4843 29.6626 68.6424 29.5156 68.7526C29.3686 68.8629 29.1878 68.9184 29.0043 68.9096H21.1555C20.7082 68.9096 20.5516 68.6635 20.6859 68.1713L34.1027 29.5314C34.2367 29.1291 34.3711 28.6709 34.5051 28.1564C34.6809 27.2611 34.7707 26.3518 34.7734 25.4396C34.7643 25.3758 34.7702 25.3108 34.7905 25.2496C34.8109 25.1885 34.8452 25.1329 34.8908 25.0873C34.9363 25.0417 34.9919 25.0074 35.053 24.987C35.1141 24.9665 35.1792 24.9606 35.243 24.9697H45.9094C46.2219 24.9697 46.4008 25.0818 46.4461 25.3057L61.6738 68.2385C61.8082 68.6861 61.6738 68.91 61.2715 68.9096H52.5504C52.4006 68.9262 52.2499 68.8877 52.1265 68.8013C52.0031 68.7149 51.9153 68.5864 51.8797 68.44L48.4586 58.5115ZM35.3774 50.0592H45.9766L45.8254 49.5604L45.5828 48.7705L45.4098 48.2158L45.1336 47.3424L44.5465 45.5037L44.0301 43.8736L42.6891 39.6275C42.3553 38.572 42.035 37.5123 41.7281 36.4486L41.4828 35.5854L41.1961 34.5646L40.7586 32.9826L40.6766 32.6846H40.6098C40.2741 34.2948 39.8654 35.8889 39.3848 37.4619L38.3895 40.6635L37.8418 42.4322L37.2891 44.2229C37.1891 44.5463 37.0899 44.8662 36.9902 45.1822L36.6934 46.1189L36.3981 47.0338L36.1043 47.926L35.8121 48.7959C35.7152 49.0822 35.6184 49.3646 35.5219 49.6436L35.3774 50.0592ZM70.7293 32.0807C70.0451 32.1081 69.3628 31.9909 68.7271 31.7366C68.0913 31.4823 67.5164 31.0966 67.0398 30.6049C66.5646 30.0918 66.1955 29.4898 65.9537 28.8336C65.7119 28.1774 65.6022 27.4798 65.6309 26.7811C65.6065 26.0893 65.7284 25.4002 65.9885 24.7587C66.2486 24.1173 66.641 23.5379 67.1402 23.0584C68.1032 22.134 69.3855 21.6167 70.7203 21.6143L70.8633 21.6158C72.4734 21.6158 73.7371 22.0963 74.6539 23.058C75.1166 23.5577 75.4763 24.1437 75.7122 24.7826C75.9481 25.4214 76.0558 26.1006 76.0289 26.7811C76.057 27.4826 75.9439 28.1826 75.6961 28.8396C75.4484 29.4965 75.0711 30.097 74.5867 30.6053C74.0977 31.0873 73.5172 31.4666 72.8793 31.7209C72.2415 31.9751 71.5592 32.0992 70.8727 32.0857L70.7293 32.0807ZM66.1004 68.2385V36.1729C66.1004 35.7705 66.2785 35.5689 66.6371 35.5689H74.8887C75.2461 35.5689 75.425 35.7701 75.4254 36.1729V68.2385C75.4254 68.6861 75.2465 68.91 74.8887 68.9096H66.7043C66.3231 68.9096 66.1223 68.7088 66.1023 68.3072L66.1004 68.2385Z" fill="#FF9A00"/>
</svg>
