<svg width="101" height="142" viewBox="0 0 101 142" fill="none" xmlns="http://www.w3.org/2000/svg">
<path d="M78.8798 5.43256H70.5801L79.2113 14.799V19.2579H61.434V14.0369H70.0641L61.434 4.67048V0.207031H78.8798V5.43256ZM57.9091 5.43256H49.6094L58.2407 14.799V19.2579H40.4622V14.0369H49.0934L40.4622 4.67048V0.207031H57.9091V5.43256ZM37.1441 5.64613H28.1879V13.8188H37.1441V19.2579H21.8215V0.207031H37.1441V5.64613Z" fill="#131313"/>
<path d="M9.61724 130.029L0.516113 27.9543H100.516L91.4071 130.012L50.4549 141.367L9.61724 130.029Z" fill="#1572B6"/>
<path d="M50.5176 132.689L83.6074 123.515L91.3923 36.3013H50.5176V132.689Z" fill="#33A9DC"/>
<path d="M50.5166 73.2825H67.0823L68.2277 60.4631H50.5166V47.9438H81.9091L81.609 51.3024L78.5326 85.8006H50.5166V73.2825Z" fill="white"/>
<path d="M50.5921 105.796L50.537 105.811L36.5948 102.046L35.7023 92.0613H23.137L24.8915 111.718L50.5348 118.836L50.5932 118.82L50.5921 105.796Z" fill="#EBEBEB"/>
<path d="M66.019 85.271L64.5106 102.037L50.5481 105.806V118.831L76.2127 111.718L76.4015 109.602L78.5798 85.271H66.019Z" fill="white"/>
<path d="M50.5603 47.9438V60.462H20.321L20.0692 57.6486L19.4993 51.3024L19.1992 47.9438H50.5603ZM50.5164 73.2836V85.8028H36.7507L36.5 82.9894L35.929 76.6421L35.6289 73.2836H50.5164Z" fill="#EBEBEB"/>
</svg>
