<svg width="100" height="100" viewBox="0 0 100 100" fill="none" xmlns="http://www.w3.org/2000/svg">
<path d="M76.5625 0H23.4375C10.4933 0 0 10.4933 0 23.4375V76.5625C0 89.5067 10.4933 100 23.4375 100H76.5625C89.5067 100 100 89.5067 100 76.5625V23.4375C100 10.4933 89.5067 0 76.5625 0Z" fill="#242938"/>
<mask id="mask0_333_6" style="mask-type:luminance" maskUnits="userSpaceOnUse" x="23" y="10" width="53" height="80">
<path d="M23.8281 10.9375H75.9219V89.0625H23.8281V10.9375Z" fill="white"/>
</mask>
<g mask="url(#mask0_333_6)">
<path d="M36.8542 89.0624C44.0417 89.0624 49.8749 83.2292 49.8749 76.0417V63.0206H36.8542C29.6667 63.0206 23.8331 68.8542 23.8331 76.0417C23.8331 83.2292 29.6667 89.0624 36.8542 89.0624Z" fill="#0ACF83"/>
<path d="M23.8331 50.0001C23.8331 42.8126 29.6667 36.9794 36.8542 36.9794H49.8749V63.0208H36.8542C29.6667 63.0208 23.8331 57.1876 23.8331 50.0001Z" fill="#A259FF"/>
<path d="M23.8331 23.9582C23.8331 16.7707 29.6667 10.9375 36.8542 10.9375H49.8749V36.9793H36.8542C29.6667 36.9793 23.8331 31.1457 23.8331 23.9582Z" fill="#F24E1E"/>
<path d="M49.875 10.9375H62.8957C70.0832 10.9375 75.9168 16.7707 75.9168 23.9582C75.9168 31.1457 70.0832 36.9793 62.8957 36.9793H49.875V10.9375Z" fill="#FF7262"/>
<path d="M75.9168 50.0001C75.9168 57.1876 70.0832 63.0208 62.8957 63.0208C55.7082 63.0208 49.875 57.1876 49.875 50.0001C49.875 42.8126 55.7082 36.9794 62.8957 36.9794C70.0832 36.9794 75.9168 42.8126 75.9168 50.0001Z" fill="#1ABCFE"/>
</g>
</svg>
