<svg width="40" height="40" viewBox="0 0 40 40" fill="none" xmlns="http://www.w3.org/2000/svg">
<path d="M30.625 0H9.375C4.19733 0 0 4.19733 0 9.375V30.625C0 35.8027 4.19733 40 9.375 40H30.625C35.8027 40 40 35.8027 40 30.625V9.375C40 4.19733 35.8027 0 30.625 0Z" fill="#242938"/>
<mask id="mask0_333_6" style="mask-type:luminance" maskUnits="userSpaceOnUse" x="9" y="4" width="22" height="32">
<path d="M9.53125 4.375H30.3688V35.625H9.53125V4.375Z" fill="white"/>
</mask>
<g mask="url(#mask0_333_6)">
<path d="M14.7417 35.625C17.6167 35.625 19.95 33.2917 19.95 30.4167V25.2083H14.7417C11.8667 25.2083 9.53326 27.5417 9.53326 30.4167C9.53326 33.2917 11.8667 35.625 14.7417 35.625Z" fill="#0ACF83"/>
<path d="M9.53326 20C9.53326 17.125 11.8667 14.7917 14.7417 14.7917H19.95V25.2083H14.7417C11.8667 25.2083 9.53326 22.875 9.53326 20Z" fill="#A259FF"/>
<path d="M9.53326 9.58328C9.53326 6.70828 11.8667 4.375 14.7417 4.375H19.95V14.7917H14.7417C11.8667 14.7917 9.53326 12.4583 9.53326 9.58328Z" fill="#F24E1E"/>
<path d="M19.95 4.375H25.1583C28.0333 4.375 30.3667 6.70828 30.3667 9.58328C30.3667 12.4583 28.0333 14.7917 25.1583 14.7917H19.95V4.375Z" fill="#FF7262"/>
<path d="M30.3667 20C30.3667 22.875 28.0333 25.2083 25.1583 25.2083C22.2833 25.2083 19.95 22.875 19.95 20C19.95 17.125 22.2833 14.7917 25.1583 14.7917C28.0333 14.7917 30.3667 17.125 30.3667 20Z" fill="#1ABCFE"/>
</g>
</svg>
