<svg width="101" height="142" viewBox="0 0 101 142" fill="none" xmlns="http://www.w3.org/2000/svg">
<path d="M100.445 27.7395L91.3349 129.797L50.3839 141.15L9.54585 129.813L0.445068 27.7395H100.445Z" fill="#E44D26"/>
<path d="M50.4451 132.472L83.5355 123.299L91.3204 36.0852H50.4451V132.472Z" fill="#F16529"/>
<path d="M32.735 61.1234H50.445V48.6045H19.0535L19.3529 51.963L22.43 86.4619H50.445V73.943H33.8792L32.735 61.1234ZM35.5565 92.7215H22.9894L24.7432 112.378L50.3874 119.497L50.445 119.481V106.456L50.3901 106.471L36.4479 102.706L35.5565 92.7215Z" fill="#EBEBEB"/>
<path d="M9.74878 0H16.1107V6.28552H21.9306V0H28.2929V19.0341H21.931V12.6604H16.1111V19.0341H9.74917L9.74878 0ZM36.6587 6.31218H31.0588V0H48.6253V6.31218H43.0219V19.0341H36.6599V6.31218H36.6587ZM51.4132 0H58.0468L62.1274 6.6881L66.204 0H72.8404V19.0341H66.5043V9.59978L62.1274 16.3674H62.0176L57.6379 9.59978V19.0341H51.4132V0ZM76.0065 0H82.3704V12.7427H91.3171V19.0341H76.0061L76.0065 0Z" fill="black"/>
<path d="M50.402 86.4619H65.8177L64.3642 102.698L50.4016 106.467V119.491L76.0662 112.378L76.2544 110.263L79.1966 77.3047L79.502 73.943H50.402V86.4619ZM50.402 61.0928V61.1234H80.6411L80.892 58.3097L81.4627 51.963L81.7618 48.6045H50.402V61.0928Z" fill="white"/>
</svg>
