<svg width="100" height="100" viewBox="0 0 100 100" fill="none" xmlns="http://www.w3.org/2000/svg">
<path d="M0 0H100V100H0V0Z" fill="#F5DE19"/>
<path d="M67.1753 78.1245C68.0273 79.8552 69.3511 81.31 70.994 82.321C72.6369 83.332 74.532 83.8582 76.461 83.8388C80.3539 83.8388 82.8431 81.8924 82.8431 79.196C82.8431 75.9817 80.286 74.8317 76.0003 72.9567L73.6503 71.9495C66.8646 69.0603 62.3646 65.4424 62.3646 57.7924C62.3646 50.746 67.7217 45.3781 76.1253 45.3781C78.8457 45.1817 81.5637 45.7905 83.9403 47.1287C86.3169 48.4669 88.2469 50.4752 89.4896 52.9031L82.1431 57.5996C81.6646 56.3957 80.8315 55.3657 79.7542 54.6463C78.6769 53.9268 77.4063 53.5518 76.111 53.571C75.5459 53.5144 74.9751 53.5762 74.4352 53.7524C73.8952 53.9285 73.3979 54.2153 72.9749 54.5943C72.5519 54.9733 72.2125 55.4362 71.9782 55.9536C71.744 56.4711 71.6202 57.0316 71.6146 57.5996C71.6146 60.4174 73.361 61.5603 77.3931 63.3138L79.7431 64.321C87.7289 67.746 92.2431 71.2353 92.2431 79.0817C92.2431 87.5424 85.5967 92.1781 76.6717 92.1781C73.1942 92.3997 69.7269 91.6102 66.6882 89.9048C63.6495 88.1995 61.1692 85.6511 59.5467 82.5674L67.1753 78.1245ZM33.9789 78.9388C35.4539 81.5567 36.7967 83.771 40.0253 83.771C43.111 83.771 45.061 82.5638 45.061 77.8674V45.9138H54.4574V77.9924C54.4574 87.721 48.7431 92.1495 40.4253 92.1495C37.4851 92.3103 34.5651 91.5775 32.0492 90.0477C29.5332 88.5178 27.5391 86.2625 26.3289 83.5781L33.9789 78.9388Z" fill="black"/>
</svg>
