<svg width="256" height="256" viewBox="0 0 256 256" fill="none" xmlns="http://www.w3.org/2000/svg">
<path d="M196 0H60C26.8629 0 0 26.8629 0 60V196C0 229.137 26.8629 256 60 256H196C229.137 256 256 229.137 256 196V60C256 26.8629 229.137 0 196 0Z" fill="#242938"/>
<path d="M121.451 28.054C121.021 28.093 119.652 28.23 118.42 28.327C90.014 30.888 63.406 46.216 46.553 69.774C37.17 82.873 31.167 97.731 28.9 113.47C28.099 118.964 28.001 120.587 28.001 128.035C28.001 135.484 28.099 137.107 28.901 142.6C34.335 180.156 61.061 211.711 97.307 223.402C103.798 225.494 110.64 226.921 118.421 227.781C121.452 228.113 134.55 228.113 137.581 227.781C151.012 226.295 162.39 222.972 173.612 217.243C175.332 216.364 175.665 216.129 175.43 215.934C175.274 215.816 167.942 205.982 159.145 194.096L143.153 172.493L123.113 142.835C112.087 126.53 103.016 113.196 102.937 113.196C102.859 113.177 102.781 126.354 102.742 142.444C102.683 170.616 102.664 171.75 102.312 172.414C101.804 173.372 101.413 173.763 100.591 174.194C99.966 174.506 99.418 174.565 96.466 174.565H93.084L92.184 173.998C91.6268 173.649 91.1742 173.156 90.874 172.571L90.464 171.691L90.504 132.493L90.562 93.275L91.168 92.512C91.481 92.102 92.146 91.574 92.615 91.32C93.416 90.929 93.729 90.89 97.111 90.89C101.1 90.89 101.764 91.046 102.801 92.18C103.094 92.493 113.944 108.837 126.926 128.524C140.069 148.451 153.219 168.373 166.378 188.289L182.214 212.278L183.016 211.75C190.112 207.136 197.62 200.567 203.563 193.724C216.212 179.198 224.365 161.486 227.102 142.6C227.903 137.107 228.001 135.484 228.001 128.035C228.001 120.587 227.903 118.964 227.102 113.47C221.667 75.914 194.941 44.36 158.695 32.669C152.302 30.596 145.499 29.169 137.874 28.309C135.997 28.113 123.074 27.899 121.452 28.055M162.39 88.544C163.328 89.013 164.091 89.912 164.365 90.85C164.521 91.359 164.56 102.229 164.521 126.725L164.462 161.877L158.265 152.375L152.048 142.874V117.322C152.048 100.802 152.126 91.515 152.243 91.065C152.556 89.971 153.24 89.111 154.179 88.602C154.98 88.192 155.274 88.152 158.343 88.152C161.237 88.152 161.745 88.192 162.39 88.544Z" fill="white"/>
</svg>
