<svg width="100" height="100" viewBox="0 0 128 80" fill="none" xmlns="http://www.w3.org/2000/svg">
    <path
        d="M114.313 31.2539C114.262 31.2539 114.211 31.2692 114.168 31.2979L111.822 32.6679C111.778 32.6952 111.742 32.7336 111.717 32.7792C111.692 32.8247 111.679 32.876 111.68 32.9279V35.6679C111.68 35.7839 111.735 35.8719 111.822 35.9299L114.168 37.2979C114.211 37.3267 114.262 37.3421 114.313 37.3421C114.365 37.3421 114.415 37.3267 114.458 37.2979L116.8 35.9299C116.845 35.9019 116.881 35.8631 116.907 35.8171C116.932 35.7711 116.945 35.7194 116.945 35.6669V32.9299C116.946 32.8777 116.933 32.8263 116.907 32.7807C116.882 32.7351 116.845 32.6969 116.8 32.6699L114.457 31.2989C114.415 31.2704 114.364 31.254 114.313 31.2539ZM63.2202 47.6379C62.7932 47.6379 62.3682 47.7419 62.0062 47.9459L50.4572 54.6729C50.0871 54.8903 49.7804 55.2007 49.5674 55.5733C49.3544 55.9459 49.2427 56.3677 49.2432 56.7969V70.2199C49.2432 71.0939 49.7052 71.9099 50.4572 72.3479L53.4972 74.0939C54.9732 74.8219 55.4942 74.8199 56.1592 74.8199C58.3292 74.8199 59.5742 73.4809 59.5742 71.1799V57.9349C59.5729 57.8427 59.5359 57.7546 59.471 57.6892C59.4061 57.6237 59.3183 57.586 59.2262 57.5839H57.7522C57.6597 57.5855 57.5714 57.623 57.506 57.6885C57.4407 57.754 57.4035 57.8424 57.4022 57.9349V71.1829C57.4022 72.2019 56.3332 73.2229 54.6262 72.3499L51.4712 70.5149C51.3552 70.4569 51.2962 70.3089 51.2962 70.1929V56.7669C51.2962 56.6509 51.3552 56.5069 51.4712 56.4479L63.0162 49.7509C63.1032 49.6929 63.2492 49.6929 63.3652 49.7509L74.9132 56.4479C75.0282 56.5069 75.0852 56.6219 75.0852 56.7679V70.1919C75.0852 70.3369 75.0282 70.4559 74.9132 70.5139L63.3652 77.2409C63.2782 77.2989 63.1322 77.2989 63.0162 77.2409L60.0652 75.4619C59.9782 75.4039 59.8622 75.3749 59.7752 75.4329C58.9652 75.8989 58.8232 75.9599 58.0412 76.2219C57.8672 76.2799 57.5782 76.3949 58.1562 76.7149L62.0062 79.0169C62.3822 79.2199 62.7862 79.3359 63.2202 79.3359C63.6542 79.3359 64.0872 79.2209 64.4342 79.0759L75.9832 72.3489C76.3538 72.1312 76.6609 71.8201 76.8739 71.4468C77.0869 71.0734 77.1984 70.6508 77.1972 70.2209V56.7969C77.1972 55.9229 76.7352 55.1099 75.9832 54.6729L64.4342 47.9459C64.0622 47.7419 63.6444 47.6359 63.2202 47.6379ZM81.2502 53.7679C80.6575 53.7703 80.09 54.0079 79.6724 54.4285C79.2548 54.8491 79.0213 55.4182 79.0232 56.0109C79.0216 56.6034 79.2552 57.1723 79.6728 57.5927C80.0903 58.0131 80.6577 58.2505 81.2502 58.2529C82.4672 58.2529 83.4782 57.2339 83.4782 56.0109C83.4751 55.4197 83.2398 54.8533 82.823 54.4339C82.4062 54.0146 81.8414 53.7747 81.2502 53.7679ZM81.2202 54.1469C81.4667 54.1439 81.7114 54.1898 81.94 54.2822C82.1685 54.3746 82.3765 54.5114 82.5517 54.6849C82.7269 54.8583 82.8659 55.0649 82.9606 55.2925C83.0552 55.5202 83.1037 55.7644 83.1032 56.0109C83.1032 57.0309 82.2632 57.9049 81.2212 57.9049C80.2092 57.9049 79.3692 57.0589 79.3692 56.0109C79.3692 54.9629 80.2372 54.1469 81.2202 54.1469ZM80.4112 54.7579V57.3199H80.9052V56.3039H81.3392C81.5132 56.3039 81.5702 56.3619 81.5992 56.5069C81.5992 56.5369 81.6852 57.1769 81.6852 57.2929H82.2052C82.1472 57.1769 82.1182 56.8269 82.0892 56.6229C82.0612 56.3029 82.0332 56.0699 81.6852 56.0409C81.8592 55.9819 82.1482 55.8949 82.1482 55.4289C82.1482 54.7589 81.5682 54.7589 81.2802 54.7589L80.4112 54.7579ZM80.8462 55.1659H81.2502C81.3962 55.1659 81.6262 55.1659 81.6262 55.5149C81.6262 55.6309 81.5702 55.8659 81.2502 55.8659H80.8452L80.8462 55.1659ZM66.3762 57.1759C63.0762 57.1759 61.1082 58.5739 61.1082 60.9329C61.1082 63.4669 63.0762 64.1629 66.2312 64.4839C70.0212 64.8629 70.3112 65.4169 70.3112 66.1739C70.3112 67.4839 69.2672 68.0379 66.8362 68.0379C63.7682 68.0379 63.1032 67.2799 62.8712 65.7369C62.8712 65.5619 62.7292 65.4469 62.5552 65.4469H61.0502C60.9582 65.448 60.8704 65.4852 60.8056 65.5505C60.7409 65.6158 60.7044 65.7039 60.7042 65.7959C60.7042 67.7759 61.7452 70.1059 66.8112 70.1059C70.4562 70.1059 72.5692 68.6479 72.5692 66.0859C72.5692 63.5809 70.8892 62.9119 67.3312 62.4459C63.7412 61.9799 63.3662 61.7179 63.3662 60.8739C63.3662 60.1749 63.6842 59.2439 66.3462 59.2439C68.7192 59.2439 69.6152 59.7689 69.9632 61.3699C69.9806 61.4422 70.0213 61.5067 70.0789 61.5536C70.1365 61.6006 70.2079 61.6274 70.2822 61.6299H71.8152C71.9032 61.6299 71.9902 61.5729 72.0492 61.5149C72.1017 61.437 72.1311 61.3458 72.1342 61.2519C71.9032 58.4569 70.0812 57.1759 66.3762 57.1759Z"
        fill="#5FA04E" />
    <path
        d="M86.0721 0.663894C85.9489 0.662085 85.8275 0.692785 85.7201 0.752895C85.6084 0.818473 85.5153 0.911508 85.4497 1.02317C85.384 1.13483 85.348 1.26141 85.3451 1.3909V20.3199C85.3451 20.4939 85.2551 20.6699 85.0821 20.7859C85.0021 20.8288 84.9128 20.8512 84.8221 20.8512C84.7313 20.8512 84.642 20.8288 84.562 20.7859L81.4961 19.0109C81.271 18.8823 81.0163 18.8147 80.7571 18.8147C80.4979 18.8147 80.2431 18.8823 80.0181 19.0109L67.7501 26.1459C67.523 26.2739 67.3339 26.4596 67.2016 26.6842C67.0694 26.9088 66.9988 27.1643 66.9971 27.4249V41.6649C66.9971 42.1889 67.2871 42.6849 67.7501 42.9469L80.0201 50.0819C80.245 50.2103 80.4995 50.2778 80.7586 50.2778C81.0176 50.2778 81.2721 50.2103 81.4971 50.0819L93.7661 42.9469C94.2291 42.6849 94.5191 42.1889 94.5191 41.6649V6.16789C94.5191 5.61489 94.2291 5.11789 93.7661 4.85689L86.4461 0.752895C86.3302 0.694865 86.2016 0.664404 86.0721 0.663894ZM13.6871 18.4299C13.4561 18.4299 13.2251 18.5139 13.0231 18.6299L0.753057 25.7389C0.522452 25.8701 0.331072 26.0606 0.198694 26.2905C0.0663155 26.5205 -0.00225891 26.7816 5.67632e-05 27.0469L0.0300568 46.1489C0.0300568 46.4119 0.173057 46.6739 0.405057 46.7909C0.512608 46.8614 0.638431 46.899 0.767057 46.899C0.895682 46.899 1.0215 46.8614 1.12906 46.7909L8.42306 42.5979C8.88606 42.3359 9.17306 41.8399 9.17306 41.3159V32.3759C9.17306 31.8519 9.46306 31.3559 9.92706 31.0939L13.0231 29.2889C13.2541 29.1429 13.5161 29.0849 13.7761 29.0849C14.0361 29.0849 14.2971 29.1429 14.5001 29.2889L17.5961 31.0939C18.0591 31.3559 18.3491 31.8519 18.3491 32.3759V41.3159C18.3491 41.8399 18.6371 42.3359 19.0991 42.5979L26.3351 46.7909C26.4475 46.8626 26.5782 46.9008 26.7116 46.9008C26.845 46.9008 26.9756 46.8626 27.0881 46.7909C27.2032 46.7283 27.2991 46.6354 27.3654 46.5222C27.4317 46.4091 27.4658 46.28 27.4641 46.1489V27.0469C27.4641 26.5229 27.1741 26.0269 26.7101 25.7639L14.4701 18.6299C14.2639 18.5205 14.0383 18.4522 13.8061 18.4289L13.6871 18.4299ZM114.354 18.6399C114.101 18.6399 113.85 18.7059 113.618 18.8379L101.346 25.9689C100.883 26.2309 100.596 26.7269 100.596 27.2519V41.4919C100.596 42.0159 100.883 42.5119 101.346 42.7739L113.53 49.7609C113.749 49.8896 113.999 49.9574 114.254 49.9574C114.508 49.9574 114.758 49.8896 114.977 49.7609L122.357 45.6279C122.472 45.5651 122.568 45.4722 122.634 45.359C122.7 45.2459 122.734 45.1169 122.732 44.9859C122.734 44.8552 122.699 44.7266 122.633 44.6139C122.567 44.5011 122.472 44.4085 122.357 44.3459L110.03 37.2099C109.918 37.144 109.825 37.0505 109.759 36.9383C109.693 36.8261 109.658 36.6989 109.655 36.5689V32.1129C109.654 31.9822 109.688 31.8536 109.754 31.7409C109.82 31.6281 109.915 31.5355 110.03 31.4729L113.88 29.2589C113.993 29.1871 114.123 29.149 114.257 29.149C114.39 29.149 114.521 29.1871 114.633 29.2589L118.479 31.4719C118.592 31.5374 118.686 31.6307 118.752 31.743C118.818 31.8552 118.854 31.9826 118.857 32.1129V35.6079C118.857 35.8709 119.001 36.1329 119.232 36.2489C119.345 36.3209 119.475 36.3591 119.609 36.3591C119.743 36.3591 119.873 36.3209 119.986 36.2489L127.277 31.9689C127.501 31.8384 127.686 31.6509 127.813 31.4254C127.94 31.2 128.005 30.9447 128.001 30.6859V27.2209C128.001 26.6969 127.711 26.2039 127.277 25.9409L115.093 18.8369C114.868 18.7083 114.614 18.6401 114.355 18.6389L114.354 18.6399ZM80.7571 29.2739C80.8221 29.2739 80.8881 29.2889 80.9471 29.3189L85.1411 31.7649C85.2571 31.8229 85.3161 31.9669 85.3161 32.0839V36.9759C85.3161 37.1219 85.2571 37.2399 85.1411 37.2979L80.9461 39.7439C80.8872 39.7727 80.8226 39.7877 80.7571 39.7877C80.6915 39.7877 80.6269 39.7727 80.5681 39.7439L76.3731 37.2979C76.2571 37.2399 76.1981 37.0929 76.1981 36.9759V32.0839C76.1981 31.9379 76.2581 31.8229 76.3731 31.7639L80.5681 29.3189C80.6267 29.2884 80.691 29.273 80.7571 29.2739Z"
        fill="#333333" />
    <path
        d="M47.9818 18.8929C47.7573 18.7638 47.5028 18.6958 47.2438 18.6958C46.9848 18.6958 46.7303 18.7638 46.5058 18.8929L34.3218 25.9699C34.0985 26.1002 33.9138 26.2875 33.7866 26.5126C33.6594 26.7376 33.5943 26.9924 33.5978 27.2509V41.4319C33.5978 41.9569 33.8878 42.4519 34.3218 42.7139L46.5058 49.7899C46.7303 49.9191 46.9848 49.9871 47.2438 49.9871C47.5028 49.9871 47.7573 49.9191 47.9818 49.7899L60.1648 42.7139C60.6278 42.4519 60.8888 41.9569 60.8888 41.4319V27.2509C60.8888 26.7269 60.5988 26.2309 60.1648 25.9699L47.9818 18.8929Z"
        fill="url(#paint0_linear_106_43)" />
    <path
        d="M60.1939 25.97L47.9529 18.893C47.8328 18.8322 47.7068 18.7836 47.5769 18.748L33.8589 42.364C33.9749 42.51 34.1189 42.626 34.2639 42.714L46.5059 49.79C46.8529 49.994 47.2579 50.052 47.6339 49.935L60.5129 26.232C60.4283 26.1212 60.3191 26.0315 60.1939 25.97Z"
        fill="url(#paint1_linear_106_43)" />
    <path
        d="M60.1938 42.713C60.5418 42.509 60.8018 42.16 60.9178 41.781L47.5178 18.718C47.1718 18.66 46.7948 18.689 46.4768 18.893L34.3218 25.94L47.4318 49.993C47.6048 49.964 47.8078 49.906 47.9818 49.818L60.1938 42.713Z"
        fill="url(#paint2_linear_106_43)" />
    <defs>
        <linearGradient id="paint0_linear_106_43" x1="52.2052" y1="24.1626" x2="41.0783" y2="46.7205"
            gradientUnits="userSpaceOnUse">
            <stop stop-color="#3F873F" />
            <stop offset="0.33" stop-color="#3F8B3D" />
            <stop offset="0.637" stop-color="#3E9638" />
            <stop offset="0.934" stop-color="#3DA92E" />
            <stop offset="1" stop-color="#3DAE2B" />
        </linearGradient>
        <linearGradient id="paint1_linear_106_43" x1="45.3924" y1="35.9976" x2="76.4376" y2="13.2007"
            gradientUnits="userSpaceOnUse">
            <stop offset="0.138" stop-color="#3F873F" />
            <stop offset="0.402" stop-color="#52A044" />
            <stop offset="0.713" stop-color="#64B749" />
            <stop offset="0.908" stop-color="#6ABF4B" />
        </linearGradient>
        <linearGradient id="paint2_linear_106_43" x1="33.1521" y1="34.3367" x2="61.3445" y2="34.3367"
            gradientUnits="userSpaceOnUse">
            <stop offset="0.092" stop-color="#6ABF4B" />
            <stop offset="0.287" stop-color="#64B749" />
            <stop offset="0.598" stop-color="#52A044" />
            <stop offset="0.862" stop-color="#3F873F" />
        </linearGradient>
    </defs>
</svg>