<svg width="100" height="98" viewBox="0 0 100 98" fill="none" xmlns="http://www.w3.org/2000/svg">
<path d="M83.3984 0H16.6016C7.43277 0 0 7.43277 0 16.6016V80.8984C0 90.0672 7.43277 97.5 16.6016 97.5H83.3984C92.5672 97.5 100 90.0672 100 80.8984V16.6016C100 7.43277 92.5672 0 83.3984 0Z" fill="#001E36"/>
<path d="M22.5171 68.373V25.5066C22.5171 25.1941 22.6515 25.0371 22.9198 25.0371L23.3444 25.0359L24.0702 25.0281L25.0788 25.0082L28.4577 24.9367L32.0808 24.8695C33.355 24.8477 34.6183 24.8359 35.8706 24.8359C39.269 24.8359 42.1312 25.2609 44.4573 26.1105C46.5556 26.8203 48.4692 27.989 50.0589 29.5316C51.4065 30.8689 52.4479 32.4825 53.1112 34.2613C53.7388 35.9923 54.0568 37.8201 54.0507 39.6613C54.0507 43.2398 53.223 46.1914 51.5683 48.5164C49.9498 50.7846 47.6924 52.5193 45.0839 53.4992L44.8601 53.5812C42.1362 54.5973 39.1198 54.9645 35.8116 54.9875L35.2976 54.9891L34.5347 54.9852L34.1499 54.9797L33.721 54.9695L33.4624 54.9594L33.3054 54.9512L32.919 54.9371L32.4468 54.9273L31.7358 54.9223L31.5776 54.9219V68.3059C31.5894 68.3879 31.5819 68.4716 31.5557 68.5502C31.5295 68.6288 31.4854 68.7003 31.4267 68.7589C31.3681 68.8175 31.2967 68.8616 31.2181 68.8878C31.1394 68.914 31.0558 68.9215 30.9737 68.9098H22.987C22.6733 68.9098 22.5171 68.7316 22.5171 68.373ZM31.578 33.0871V47.0684C32.1134 47.1116 32.6503 47.134 33.1874 47.1355H35.4015C36.9279 47.1304 38.4455 46.9032 39.9065 46.4609L40.1979 46.3699C41.5271 45.9751 42.7147 45.2066 43.6194 44.1559C44.4601 43.1645 44.8956 41.7984 44.9257 40.0574L44.9276 39.8625C44.9628 38.5648 44.6253 37.2844 43.9546 36.173C43.2497 35.0983 42.2308 34.2667 41.0366 33.7914C39.4772 33.1853 37.8116 32.9002 36.1394 32.9531L35.2886 32.9555L34.7519 32.9602L34.2397 32.9668L33.5171 32.9809L32.9897 32.9957L32.7159 33.0059L32.3499 33.023L32.0382 33.0422L31.8605 33.0562L31.7069 33.0711L31.6394 33.0789L31.578 33.0871ZM79.9882 44.5262C78.8179 43.9248 77.5767 43.4731 76.2937 43.1816L75.9968 43.1176C74.5853 42.7937 73.1443 42.6153 71.6964 42.5852L71.3347 42.5809C70.4859 42.5579 69.6383 42.6596 68.819 42.8828C68.2975 42.9988 67.8338 43.2958 67.5104 43.7211C67.2918 44.0614 67.1755 44.4573 67.1753 44.8617C67.1875 45.254 67.329 45.6312 67.5776 45.9348C67.9337 46.3512 68.3617 46.7001 68.8413 46.9648L68.9866 47.0418C69.9431 47.5568 70.9286 48.0159 71.9382 48.4168C74.1896 49.1705 76.3408 50.1955 78.3444 51.4691C79.7096 52.3307 80.8393 53.518 81.6319 54.9242C82.2983 56.2556 82.6321 57.7286 82.6046 59.2172C82.6447 61.1831 82.0829 63.1143 80.9944 64.752C79.8292 66.414 78.2108 67.7062 76.3319 68.4746C74.3644 69.3395 71.9479 69.7859 69.0831 69.8152L68.7855 69.8168C67.0095 69.8348 65.2359 69.6793 63.4901 69.3527L63.1167 69.2801C61.6468 69.0105 60.216 68.5598 58.8569 67.9383C58.7204 67.8678 58.6049 67.7623 58.5224 67.6326C58.44 67.5029 58.3934 67.3536 58.3874 67.2V59.8883C58.3794 59.8173 58.3907 59.7455 58.4203 59.6805C58.4499 59.6155 58.4966 59.5597 58.5554 59.5191C58.613 59.4866 58.6791 59.4724 58.745 59.4784C58.8109 59.4844 58.8734 59.5103 58.9241 59.5527C60.529 60.4991 62.2717 61.1894 64.0894 61.5988C65.6915 62.0005 67.335 62.2144 68.9866 62.2363C70.5515 62.2363 71.703 62.0348 72.4413 61.6324C72.7747 61.4798 73.0567 61.2339 73.2531 60.9243C73.4496 60.6148 73.5522 60.2549 73.5483 59.8883C73.5483 59.3078 73.2128 58.7484 72.5421 58.2113C72.2608 57.9863 71.8573 57.7414 71.3323 57.477L71.0812 57.3535L70.8132 57.2273L70.6726 57.1633L70.378 57.0328C70.3269 57.0105 70.2758 56.9884 70.2245 56.9664L69.9042 56.832L69.7374 56.7637L69.3913 56.625L69.2116 56.5547L68.8394 56.4113L68.4499 56.2656C66.3435 55.5325 64.3462 54.517 62.5128 53.2469C61.2016 52.3349 60.1219 51.1288 59.3601 49.725C58.7003 48.4031 58.3668 46.9425 58.3874 45.4652C58.3837 43.6903 58.8712 41.949 59.796 40.434C60.8507 38.766 62.3647 37.4379 64.1565 36.6105C66.1241 35.6273 68.5835 35.1352 71.5354 35.1344C73.2644 35.1205 74.9917 35.2439 76.7011 35.5035C77.9389 35.6605 79.149 35.9878 80.2972 36.4762C80.4819 36.5293 80.6308 36.6656 80.6995 36.8453C80.7452 37.009 80.7675 37.1781 80.7667 37.3484V44.1238C80.7765 44.284 80.6995 44.4375 80.5655 44.5262C80.4758 44.5708 80.377 44.594 80.2769 44.594C80.1767 44.594 80.0779 44.5708 79.9882 44.5262Z" fill="#31A8FF"/>
</svg>
