<svg width="101" height="100" viewBox="0 0 101 100" fill="none" xmlns="http://www.w3.org/2000/svg">
<path d="M49.7848 0.0720215C24.3985 0.0720215 25.9836 11.081 25.9836 11.081L26.0118 22.4867H50.2374V25.911H16.3897C16.3897 25.911 0.14502 24.0686 0.14502 49.6832C0.14502 75.2985 14.3238 74.3901 14.3238 74.3901H22.7856V62.5036C22.7856 62.5036 22.3294 48.3248 36.738 48.3248H60.7656C60.7656 48.3248 74.265 48.5429 74.265 35.2781V13.3455C74.265 13.3455 76.3152 0.0720215 49.7848 0.0720215ZM36.4267 7.7421C36.9992 7.74158 37.5662 7.85396 38.0952 8.0728C38.6241 8.29163 39.1048 8.61263 39.5096 9.01743C39.9144 9.42223 40.2354 9.90287 40.4542 10.4319C40.6731 10.9609 40.7854 11.5278 40.7849 12.1003C40.7854 12.6727 40.6731 13.2397 40.4542 13.7687C40.2354 14.2977 39.9144 14.7783 39.5096 15.1831C39.1048 15.5879 38.6241 15.9089 38.0952 16.1278C37.5662 16.3466 36.9992 16.459 36.4267 16.4585C35.8543 16.459 35.2873 16.3466 34.7583 16.1278C34.2293 15.9089 33.7487 15.5879 33.3439 15.1831C32.9391 14.7783 32.6181 14.2977 32.3993 13.7687C32.1804 13.2397 32.068 12.6727 32.0686 12.1003C32.068 11.5278 32.1804 10.9609 32.3993 10.4319C32.6181 9.90287 32.9391 9.42223 33.3439 9.01743C33.7487 8.61263 34.2293 8.29163 34.7583 8.0728C35.2873 7.85396 35.8543 7.74158 36.4267 7.7421Z" fill="url(#paint0_linear_18_38)"/>
<path d="M50.5056 99.552C75.8919 99.552 74.3068 88.543 74.3068 88.543L74.2786 77.1378H50.0525V73.7135H83.9003C83.9003 73.7135 100.145 75.5558 100.145 49.9405C100.145 24.3255 85.9662 25.234 85.9662 25.234H77.5044V37.1201C77.5044 37.1201 77.9605 51.2988 63.5519 51.2988H39.5244C39.5244 51.2988 26.025 51.0807 26.025 64.346V86.279C26.025 86.279 23.9751 99.552 50.5052 99.552M63.8632 91.8827C63.2907 91.8832 62.7238 91.7709 62.1948 91.552C61.6658 91.3332 61.1852 91.0122 60.7804 90.6074C60.3756 90.2026 60.0546 89.722 59.8357 89.193C59.6169 88.664 59.5045 88.097 59.505 87.5246C59.5045 86.9521 59.6168 86.3851 59.8356 85.856C60.0544 85.327 60.3754 84.8463 60.7802 84.4415C61.185 84.0366 61.6657 83.7156 62.1947 83.4967C62.7237 83.2779 63.2907 83.1655 63.8632 83.166C64.4357 83.1655 65.0026 83.2779 65.5316 83.4967C66.0606 83.7155 66.5413 84.0365 66.9461 84.4413C67.3509 84.8461 67.6719 85.3268 67.8907 85.8558C68.1095 86.3847 68.2219 86.9517 68.2214 87.5242C68.2219 88.0966 68.1095 88.6636 67.8907 89.1926C67.6719 89.7216 67.3509 90.2022 66.9461 90.607C66.5413 91.0118 66.0606 91.3328 65.5316 91.5516C65.0026 91.7705 64.4357 91.8832 63.8632 91.8827Z" fill="url(#paint1_linear_18_38)"/>
<defs>
<linearGradient id="paint0_linear_18_38" x1="961.141" y1="894.835" x2="5916.84" y2="5801.09" gradientUnits="userSpaceOnUse">
<stop stop-color="#387EB8"/>
<stop offset="1" stop-color="#366994"/>
</linearGradient>
<linearGradient id="paint1_linear_18_38" x1="1444.46" y1="1554.7" x2="6766.3" y2="6585.62" gradientUnits="userSpaceOnUse">
<stop stop-color="#FFE052"/>
<stop offset="1" stop-color="#FFC331"/>
</linearGradient>
</defs>
</svg>
