<svg width="102" height="125" viewBox="0 0 102 125" fill="none" xmlns="http://www.w3.org/2000/svg">
<path d="M51 54.7999C56.1363 54.7999 60.3 50.6362 60.3 45.5C60.3 40.3637 56.1363 36.2 51 36.2C45.8638 36.2 41.7 40.3637 41.7 45.5C41.7 50.6362 45.8638 54.7999 51 54.7999Z" fill="#61DAFB"/>
<path d="M51 79.7C58.3 86.8 65.5 91 71.3 91C73.2 91 75 90.6 76.5 89.7C81.7 86.7 83.6 79.2 81.8 68.5C81.5 66.6 81.1 64.7 80.6 62.7C82.6 62.1 84.4 61.5 86.2 60.9C96.3 57 101.9 51.6 101.9 45.7C101.9 39.7 96.3 34.3 86.2 30.5C84.4 29.8 82.6 29.2 80.6 28.7C81.1 26.7 81.5 24.8 81.8 22.9C83.5 12 81.6 4.39998 76.4 1.39998C74.9 0.499976 73.1 0.0999756 71.2 0.0999756C65.5 0.0999756 58.2 4.29997 50.9 11.4C43.7 4.29997 36.5 0.0999756 30.7 0.0999756C28.8 0.0999756 27 0.499976 25.5 1.39998C20.3 4.39998 18.4 11.9 20.2 22.6C20.5 24.5 20.9 26.4 21.4 28.4C19.4 29 17.6 29.6 15.8 30.2C5.7 34.1 0.100006 39.5 0.100006 45.4C0.100006 51.4 5.7 56.8 15.8 60.6C17.6 61.3 19.4 61.9 21.4 62.4C20.9 64.4 20.5 66.3 20.2 68.2C18.5 78.9 20.4 86.5 25.5 89.4C27 90.3 28.8 90.7 30.7 90.7C36.5 90.9 43.7 86.7 51 79.7ZM45.4 66.2C47.2 66.3 49.1 66.3 51 66.3C52.9 66.3 54.8 66.3 56.6 66.2C54.8 68.6 52.9 70.8 51 72.9C49.1 70.8 47.2 68.6 45.4 66.2ZM33 55.9C34 57.6 34.9 59.2 36 60.8C32.9 60.4 30 59.9 27.2 59.3C28.1 56.6 29.1 53.8 30.3 51C31.1 52.6 32 54.3 33 55.9ZM27.2 31.8C30 31.2 32.9 30.7 36 30.3C35 31.9 34 33.5 33 35.2C32 36.9 31.1 38.5 30.3 40.2C29 37.3 28 34.5 27.2 31.8ZM32.7 45.5C34 42.8 35.4 40.1 37 37.4C38.5 34.8 40.2 32.2 41.9 29.6C44.9 29.4 47.9 29.3 51 29.3C54.2 29.3 57.2 29.4 60.1 29.6C61.9 32.2 63.5 34.8 65 37.4C66.6 40.1 68 42.8 69.3 45.5C68 48.2 66.6 50.9 65 53.6C63.5 56.2 61.8 58.8 60.1 61.4C57.1 61.6 54.1 61.7 51 61.7C47.8 61.7 44.8 61.6 41.9 61.4C40.1 58.8 38.5 56.2 37 53.6C35.4 50.9 34 48.2 32.7 45.5ZM71.8 40.1L69.1 35.1C68.1 33.4 67.2 31.8 66.1 30.2C69.2 30.6 72.1 31.1 74.9 31.7C74 34.5 73 37.3 71.8 40.1ZM71.8 50.9C73 53.7 74 56.5 74.9 59.2C72.1 59.8 69.2 60.3 66.1 60.7C67.1 59.1 68.1 57.5 69.1 55.8C70 54.3 70.9 52.6 71.8 50.9ZM74.1 85.6C73.3 86.1 72.3 86.3 71.2 86.3C66.3 86.3 60.2 82.3 54.2 76.3C57.1 73.2 59.9 69.7 62.7 65.8C67.4 65.4 71.9 64.7 76.1 63.7C76.6 65.5 76.9 67.3 77.2 69.1C78.6 77.6 77.5 83.7 74.1 85.6ZM79.3 32.9C90.5 36.1 97.2 41 97.2 45.5C97.2 49.4 92.6 53.3 84.5 56.4C82.9 57 81.1 57.6 79.3 58.1C78 54 76.4 49.8 74.4 45.5C76.4 41.2 78.1 37 79.3 32.9ZM71.3 4.69998C72.4 4.69998 73.3 4.89998 74.2 5.39998C77.5 7.29998 78.7 13.3 77.3 21.9C77 23.6 76.6 25.4 76.2 27.3C72 26.4 67.5 25.7 62.8 25.2C60.1 21.3 57.2 17.8 54.3 14.7C60.3 8.79998 66.4 4.69998 71.3 4.69998ZM56.6 24.8C54.8 24.7 52.9 24.7 51 24.7C49.1 24.7 47.2 24.7 45.4 24.8C47.2 22.4 49.1 20.2 51 18.1C52.9 20.2 54.8 22.5 56.6 24.8ZM27.9 5.39998C28.7 4.89998 29.7 4.69998 30.8 4.69998C35.7 4.69998 41.8 8.69998 47.8 14.7C44.9 17.8 42.1 21.3 39.3 25.2C34.6 25.6 30.1 26.3 25.9 27.3C25.4 25.5 25.1 23.7 24.8 21.9C23.4 13.4 24.5 7.39998 27.9 5.39998ZM22.7 58.1C11.5 54.9 4.8 50 4.8 45.5C4.8 41.6 9.40001 37.7 17.5 34.6C19.1 34 20.9 33.4 22.7 32.9C24 37 25.6 41.2 27.6 45.5C25.6 49.8 23.9 54.1 22.7 58.1ZM24.8 69.1C25.1 67.4 25.5 65.6 25.9 63.7C30.1 64.6 34.6 65.3 39.3 65.8C42 69.7 44.9 73.2 47.8 76.3C41.8 82.2 35.7 86.3 30.8 86.3C29.7 86.3 28.8 86.1 27.9 85.6C24.5 83.7 23.4 77.6 24.8 69.1ZM20.6 110.3C22.8 107.6 22.9 104.6 21.7 101.6C20.5 98.6 18 97.2 14.9 97.1C11.2 97 7.40001 97.1 3.70001 97.1H3.00001V123H6.00001V113.2H10.7C11.3 113.2 11.8 113.4 12.1 113.9L18.1 123.2C18.2 123.4 18.5 123.7 18.7 123.7H22.6C20.2 120 17.9 116.5 15.5 112.9C17.6 112.6 19.4 111.9 20.6 110.3ZM6.00001 110.1V100.2H7.10001C9.40001 100.2 11.8 100.1 14.1 100.3C16.8 100.4 18.7 102.5 18.7 105.2C18.7 107.9 16.5 110 13.8 110.1C11.4 110.2 9.00001 110.1 6.00001 110.1ZM44.7 111.4C43.1 104.4 36.7 102.6 31.8 104.8C28 106.5 26.3 109.8 26.2 113.9C26.1 117 27 119.8 29.4 121.9C32.1 124.3 35.4 124.6 38.8 124C40.7 123.6 42.4 122.7 43.7 121.3C43.2 120.6 42.7 119.9 42.2 119.3C39.4 121.7 36.3 122.5 32.9 120.9C30.7 119.8 29.6 117.1 29.4 115.1H44.9V113.8C45 112.9 44.9 112.1 44.7 111.4ZM29.6 113C29.3 110 32.3 106.8 35.6 106.8C39.4 106.7 41.8 109 41.9 113H29.6ZM60.3 104.3C58.8 104 57.2 103.9 55.7 104C53.3 104.2 51.2 105.3 49.5 107.1C50 107.8 50.4 108.5 51 109.3C51.2 109.1 51.4 108.9 51.6 108.8C53.2 107.3 55.1 106.5 57.4 106.7C59.2 106.8 60.9 107.4 61.4 109.2C61.8 110.6 61.7 112.1 61.8 113.6C61.5 113.6 61.4 113.5 61.3 113.4C58.9 111.4 56.2 111 53.3 111.7C50.6 112.4 48.9 114.5 48.7 117.2C48.5 120.3 49.9 122.6 52.6 123.7C54.3 124.4 56.2 124.4 58 124C59.4 123.7 60 122.9 62 121.8V123.1H64.8C64.8 119.1 64.9 114.2 64.8 109.6C64.8 106.7 63.1 104.9 60.3 104.3ZM61.7 116.9C61.6 117.2 61.7 117.5 61.7 117.8C61.7 119.9 61.2 120.6 59.2 121.4C57.8 121.9 56.3 122.1 54.8 121.6C53.1 121.1 51.9 119.6 51.9 117.9C51.8 116.2 52.9 114.5 54.6 114C56.9 113.2 59 113.7 60.9 115.1C61.5 115.6 61.9 116.1 61.7 116.9ZM77.3 107C79.9 106.2 82.3 106.7 84.1 108.9L84.4 109.1C85.1 108.5 85.7 107.9 86.5 107.2C86.2 106.9 86.1 106.7 85.9 106.4C83 103.3 77.3 102.9 73.8 105.4C68.9 109 69 116 71.4 119.7C73.7 123.2 77 124.4 80.9 123.9C83.2 123.6 85.1 122.5 86.6 120.6C85.9 120 85.2 119.4 84.5 118.7C84.3 118.9 84.2 119 84.1 119.2C81.4 122.2 76.9 121.9 74.5 118.7C73.1 116.8 72.8 114.6 73.2 112.4C73.4 109.9 74.7 107.9 77.3 107ZM98.1 120.6C97.9 120.7 97.8 120.8 97.8 120.8C97 121.4 96.2 121.5 95.3 121.2C94.4 120.8 94.3 120 94.2 119.2V107.8C94.2 107.6 94.2 108 94.3 107H98.1V104H94.1V99H91.1V104.4H88.5C88.3 104.4 88 104.6 88 104.8C87.9 105.5 88 106 88 107H91.2V119.8C91.2 121.4 91.6 122.8 93 123.6C94.5 124.5 97.4 124.3 98.7 123.2C98.9 123.1 99 122.7 99 122.6C98.7 122 98.4 121.3 98.1 120.6Z" fill="#61DAFB"/>
</svg>
