<svg width="41" height="41" viewBox="0 0 41 41" fill="none" xmlns="http://www.w3.org/2000/svg">
<path d="M7.27441 14.9988H39.1688V38.5732H7.27441V14.9988Z" fill="white"/>
<path d="M0.5 20.41V40.41H40.5V0.410034H0.5V20.41ZM32.7336 18.81C33.6916 19.0324 34.5624 19.5334 35.236 20.25C35.6068 20.6361 35.9292 21.0659 36.196 21.53C36.196 21.5812 34.468 22.7492 33.4152 23.402C33.3768 23.4276 33.2232 23.2612 33.0536 23.0084C32.8614 22.6768 32.5883 22.3993 32.2599 22.2017C31.9314 22.0042 31.5582 21.8931 31.1752 21.8788C29.9624 21.7956 29.1816 22.4324 29.188 23.4788C29.178 23.7394 29.2376 23.9978 29.3608 24.2276C29.6264 24.7812 30.1224 25.1108 31.6776 25.7828C34.5416 27.0148 35.7672 27.8276 36.5288 28.9828C37.38 30.2628 37.5688 32.33 36.9928 33.8596C36.3528 35.5236 34.7848 36.6532 32.5672 37.0276C31.5544 37.1436 30.531 37.1329 29.5208 36.9956C27.9725 36.7404 26.5463 35.9971 25.4504 34.874C25.0824 34.4676 24.3656 33.4084 24.4104 33.3316C24.5272 33.2449 24.6502 33.1668 24.7784 33.098L26.26 32.2788L27.4088 31.6132L27.6488 31.9684C28.0538 32.5478 28.5693 33.0415 29.1656 33.4212C30.4456 34.0932 32.1928 34.0004 33.0568 33.2228C33.3469 32.9379 33.5279 32.5602 33.5682 32.1556C33.6085 31.751 33.5057 31.345 33.2776 31.0084C32.9576 30.5636 32.3176 30.1892 30.5288 29.4084C28.4648 28.5188 27.5752 27.9684 26.7624 27.0916C26.255 26.513 25.8804 25.8304 25.6648 25.0916C25.504 24.2476 25.4802 23.3832 25.5944 22.5316C26.02 20.538 27.5144 19.146 29.6968 18.7332C30.7075 18.6082 31.7313 18.6362 32.7336 18.8164V18.81ZM23.3448 20.4868V22.1252H18.1512V36.9188H14.468V22.122H9.2616V20.522C9.24538 19.9703 9.2582 19.418 9.3 18.8676C9.3256 18.8388 12.5 18.8388 16.34 18.8388H23.3256L23.3448 20.4868Z" fill="#007ACC"/>
</svg>
