<svg width="101" height="101" viewBox="0 0 101 101" fill="none" xmlns="http://www.w3.org/2000/svg">
<path d="M17.436 36.8818H97.172V95.8178H17.436V36.8818Z" fill="white"/>
<path d="M0.5 50.41V100.41H100.5V0.410034H0.5V50.41ZM81.084 46.41C83.4791 46.9659 85.656 48.2185 87.34 50.01C88.2671 50.9752 89.073 52.0498 89.74 53.21C89.74 53.338 85.42 56.258 82.788 57.89C82.692 57.954 82.308 57.538 81.884 56.906C81.4035 56.077 80.7208 55.3831 79.8997 54.8893C79.0785 54.3955 78.1456 54.1178 77.188 54.082C74.156 53.874 72.204 55.466 72.22 58.082C72.1949 58.7333 72.3441 59.3796 72.652 59.954C73.316 61.338 74.556 62.162 78.444 63.842C85.604 66.922 88.668 68.954 90.572 71.842C92.7 75.042 93.172 80.21 91.732 84.034C90.132 88.194 86.212 91.018 80.668 91.954C78.1359 92.2441 75.5775 92.2172 73.052 91.874C69.1813 91.236 65.6159 89.3776 62.876 86.57C61.956 85.554 60.164 82.906 60.276 82.714C60.568 82.4972 60.8755 82.302 61.196 82.13L64.9 80.082L67.772 78.418L68.372 79.306C69.3846 80.7545 70.6732 81.9888 72.164 82.938C75.364 84.618 79.732 84.386 81.892 82.442C82.6172 81.7297 83.0697 80.7855 83.1705 79.774C83.2714 78.7624 83.0143 77.7476 82.444 76.906C81.644 75.794 80.044 74.858 75.572 72.906C70.412 70.682 68.188 69.306 66.156 67.114C64.8875 65.6675 63.9509 63.9609 63.412 62.114C63.01 60.004 62.9506 57.843 63.236 55.714C64.3 50.73 68.036 47.25 73.492 46.218C76.0187 45.9054 78.5782 45.9755 81.084 46.426V46.41ZM57.612 50.602V54.698H44.628V91.682H35.42V54.69H22.404V50.69C22.3635 49.3106 22.3955 47.9301 22.5 46.554C22.564 46.482 30.5 46.482 40.1 46.482H57.564L57.612 50.602Z" fill="#007ACC"/>
</svg>
