<svg width="50" height="44" viewBox="0 0 50 44" fill="none" xmlns="http://www.w3.org/2000/svg">
<path d="M46.875 28.125L50 43.75H0L3.125 28.125H8.78906C7.95898 26.6927 7.33236 25.1872 6.90918 23.6084C6.486 22.0296 6.26628 20.4102 6.25 18.75C6.25 17.0247 6.46973 15.3646 6.90918 13.7695C7.34863 12.1745 7.9834 10.6852 8.81348 9.30176C9.64355 7.91829 10.6201 6.64876 11.7432 5.49316C12.8662 4.33757 14.1276 3.361 15.5273 2.56348C16.9271 1.76595 18.4245 1.13932 20.0195 0.683594C21.6146 0.227865 23.2747 0 25 0C26.7253 0 28.3854 0.219727 29.9805 0.65918C31.5755 1.09863 33.0648 1.7334 34.4482 2.56348C35.8317 3.39355 37.1012 4.37012 38.2568 5.49316C39.4124 6.61621 40.389 7.8776 41.1865 9.27734C41.984 10.6771 42.6107 12.1745 43.0664 13.7695C43.5221 15.3646 43.75 17.0247 43.75 18.75C43.75 20.4102 43.5384 22.0296 43.1152 23.6084C42.6921 25.1872 42.0573 26.6927 41.2109 28.125H46.875ZM40.625 18.75C40.625 18.2292 40.6006 17.7083 40.5518 17.1875C40.5029 16.6667 40.4215 16.1458 40.3076 15.625H34.2285C34.3262 16.6829 34.375 17.7246 34.375 18.75C34.375 19.7917 34.3262 20.8333 34.2285 21.875H40.3076C40.4053 21.3542 40.4785 20.8333 40.5273 20.3125C40.5762 19.7917 40.6087 19.2708 40.625 18.75ZM18.8965 21.875H31.1035C31.2012 20.8333 31.25 19.7917 31.25 18.75C31.25 17.7246 31.2012 16.6829 31.1035 15.625H18.8965C18.7988 16.6829 18.75 17.7246 18.75 18.75C18.75 19.7917 18.7988 20.8333 18.8965 21.875ZM30.6641 25H19.3359C19.401 25.3743 19.515 25.8626 19.6777 26.4648C19.8405 27.0671 20.0439 27.7262 20.2881 28.4424C20.5322 29.1585 20.8171 29.8584 21.1426 30.542C21.4681 31.2256 21.8262 31.8604 22.2168 32.4463C22.6074 33.0322 23.0387 33.4961 23.5107 33.8379C23.9827 34.1797 24.4792 34.3587 25 34.375C25.5208 34.375 26.0091 34.196 26.4648 33.8379C26.9206 33.4798 27.3519 33.016 27.7588 32.4463C28.1657 31.8766 28.5238 31.2419 28.833 30.542C29.1423 29.8421 29.4271 29.1423 29.6875 28.4424C29.9479 27.7425 30.1514 27.0915 30.2979 26.4893C30.4443 25.887 30.5664 25.3906 30.6641 25ZM19.0186 33.1787C18.2699 31.9417 17.6676 30.6234 17.2119 29.2236C16.7562 27.8239 16.4062 26.416 16.1621 25H10.6934C11.084 25.8626 11.5723 26.7008 12.1582 27.5146C12.7441 28.3285 13.3952 29.1016 14.1113 29.834C14.8275 30.5664 15.6087 31.2093 16.4551 31.7627C17.3014 32.3161 18.1559 32.7881 19.0186 33.1787ZM33.8379 25C33.5775 26.3997 33.2275 27.7995 32.7881 29.1992C32.3486 30.599 31.7546 31.9255 31.0059 33.1787C31.8848 32.7881 32.7311 32.3079 33.5449 31.7383C34.3587 31.1686 35.1318 30.5339 35.8643 29.834C36.5967 29.1341 37.2559 28.3691 37.8418 27.5391C38.4277 26.709 38.916 25.8626 39.3066 25H33.8379ZM39.3066 12.5C38.4766 10.6608 37.3535 9.0332 35.9375 7.61719C34.5215 6.20117 32.8695 5.10254 30.9814 4.32129C31.7301 5.55827 32.3242 6.87663 32.7637 8.27637C33.2031 9.67611 33.5612 11.084 33.8379 12.5H39.3066ZM25 3.125C24.4792 3.125 23.9909 3.30404 23.5352 3.66211C23.0794 4.02018 22.6481 4.48405 22.2412 5.05371C21.8343 5.62337 21.4762 6.25814 21.167 6.95801C20.8577 7.65788 20.5729 8.35775 20.3125 9.05762C20.0521 9.75749 19.8405 10.4085 19.6777 11.0107C19.515 11.613 19.401 12.1094 19.3359 12.5H30.6641C30.5827 12.1257 30.4688 11.6374 30.3223 11.0352C30.1758 10.4329 29.9723 9.77376 29.7119 9.05762C29.4515 8.34147 29.1667 7.6416 28.8574 6.95801C28.5482 6.27441 28.1901 5.63965 27.7832 5.05371C27.3763 4.46777 26.945 4.00391 26.4893 3.66211C26.0335 3.32031 25.5371 3.14128 25 3.125ZM19.0186 4.32129C17.1468 5.10254 15.5029 6.20117 14.0869 7.61719C12.6709 9.0332 11.5397 10.6608 10.6934 12.5H16.1621C16.4225 11.084 16.7725 9.67611 17.2119 8.27637C17.6514 6.87663 18.2536 5.55827 19.0186 4.32129ZM9.69238 15.625C9.59473 16.1458 9.52148 16.6667 9.47266 17.1875C9.42383 17.7083 9.39128 18.2292 9.375 18.75C9.375 19.2708 9.39941 19.7917 9.44824 20.3125C9.49707 20.8333 9.57845 21.3542 9.69238 21.875H15.7715C15.6738 20.8333 15.625 19.7917 15.625 18.75C15.625 17.7246 15.6738 16.6829 15.7715 15.625H9.69238ZM3.80859 40.625H46.1914L44.3115 31.25H38.9404C38.0615 32.2428 37.0931 33.1217 36.0352 33.8867C34.9772 34.6517 33.846 35.3109 32.6416 35.8643C31.4372 36.4176 30.2002 36.8245 28.9307 37.085C27.6611 37.3454 26.3509 37.4837 25 37.5C23.6654 37.5 22.3551 37.3617 21.0693 37.085C19.7835 36.8083 18.5465 36.4014 17.3584 35.8643C16.1702 35.3271 15.0472 34.6761 13.9893 33.9111C12.9313 33.1462 11.9548 32.2591 11.0596 31.25H5.68848L3.80859 40.625Z" fill="black"/>
</svg>
